static_grf.mot
version=1
nRows=27
nColumns 19
inDegrees=yes
endheader
time	1_ground_force_vx	1_ground_force_vy	1_ground_force_vz	1_ground_force_px	1_ground_force_py	1_ground_force_pz	1_ground_torque_x	1_ground_torque_y	1_ground_torque_z	2_ground_force_vx	2_ground_force_vy	2_ground_force_vz	2_ground_force_px	2_ground_force_py	2_ground_force_pz	2_ground_torque_x	2_ground_torque_y	2_ground_torque_z
            0.945000	           -2.621869	          402.557574	          -46.096438	           -0.252944	            0.006183	           -0.396752	           -0.032097	            4.928087	           -0.564310	            0.698502	          487.095230	           49.416495	           -0.263474	            0.005499	           -0.688240	           -0.006572	           -4.582907	           -0.464942
            0.945500	           -2.760506	          403.640714	          -46.458307	           -0.252867	            0.006181	           -0.396367	           -0.033348	            4.876086	           -0.561229	            0.837119	          487.647657	           49.559191	           -0.263209	            0.005501	           -0.688485	           -0.007838	           -4.566065	           -0.464045
            0.946000	           -2.806025	          404.360981	          -46.271677	           -0.252753	            0.006180	           -0.396051	           -0.033799	            4.870649	           -0.557356	            0.788255	          488.200139	           49.514254	           -0.263558	            0.005499	           -0.688302	           -0.007402	           -4.584404	           -0.464960
            0.946500	           -2.714420	          404.180961	          -46.318530	           -0.252925	            0.006180	           -0.396209	           -0.032980	            4.910810	           -0.562771	            0.699831	          486.726948	           49.415181	           -0.263566	            0.005498	           -0.688015	           -0.006651	           -4.625626	           -0.469619
            0.947000	           -2.897109	          404.179746	          -46.042939	           -0.253092	            0.006179	           -0.395860	           -0.035173	            4.907001	           -0.558991	            0.747407	          486.542414	           49.555288	           -0.263430	            0.005498	           -0.687961	           -0.007026	           -4.573802	           -0.465851
            0.947500	           -2.851347	          403.999655	          -46.089686	           -0.252842	            0.006181	           -0.396251	           -0.034005	            4.818073	           -0.549662	            0.699934	          486.726111	           49.649821	           -0.263608	            0.005498	           -0.688131	           -0.006597	           -4.587440	           -0.467954
            0.948000	           -2.897253	          403.098741	          -46.185149	           -0.252828	            0.006180	           -0.396206	           -0.034858	            4.849852	           -0.555673	            0.836578	          487.830794	           49.841416	           -0.263491	            0.005499	           -0.688271	           -0.007918	           -4.617229	           -0.471740
            0.948500	           -2.759856	          403.819831	          -46.182398	           -0.253100	            0.006180	           -0.396088	           -0.033307	            4.873388	           -0.557340	            0.414141	          488.014416	           49.560684	           -0.263340	            0.005500	           -0.688509	           -0.003876	           -4.567789	           -0.463885
            0.949000	           -2.622635	          403.640151	          -46.321076	           -0.252852	            0.006181	           -0.396256	           -0.031788	            4.892390	           -0.561443	            0.648432	          488.014927	           49.654441	           -0.263326	            0.005501	           -0.688591	           -0.006155	           -4.632147	           -0.471311
            0.949500	           -2.760311	          403.820617	          -46.365822	           -0.253135	            0.006181	           -0.396341	           -0.033470	            4.896511	           -0.562207	            0.792346	          487.094396	           49.744952	           -0.263460	            0.005499	           -0.688358	           -0.007523	           -4.624665	           -0.472298
            0.950000	           -2.805992	          404.180746	          -46.272450	           -0.252945	            0.006180	           -0.396206	           -0.033875	            4.879443	           -0.558621	            0.417402	          487.094215	           49.416615	           -0.263442	            0.005499	           -0.688273	           -0.003899	           -4.549886	           -0.461594
            0.950500	           -2.943716	          404.000817	          -46.364594	           -0.253066	            0.006180	           -0.396050	           -0.035336	            4.849607	           -0.556558	            0.792222	          487.095401	           49.463383	           -0.263516	            0.005499	           -0.688358	           -0.007420	           -4.561903	           -0.463250
            0.951000	           -2.622587	          404.000486	          -46.273678	           -0.253251	            0.006181	           -0.396357	           -0.031876	            4.910410	           -0.562432	            0.508629	          487.829610	           49.841556	           -0.263319	            0.005500	           -0.688456	           -0.004706	           -4.513611	           -0.461156
            0.951500	           -2.759448	          403.458709	          -46.046372	           -0.253214	            0.006182	           -0.396526	           -0.033342	            4.874960	           -0.556375	            0.557431	          487.277691	           49.745708	           -0.263419	            0.005499	           -0.688216	           -0.005239	           -4.579545	           -0.467521
            0.952000	           -2.942739	          403.638713	          -45.999292	           -0.253242	            0.006181	           -0.396322	           -0.035157	            4.822235	           -0.549549	            0.599567	          488.567409	           49.609504	           -0.263529	            0.005501	           -0.688792	           -0.005651	           -4.604825	           -0.467577
            0.952500	           -2.531602	          404.722549	          -46.500090	           -0.252929	            0.006180	           -0.396126	           -0.030558	            4.885252	           -0.561285	            0.463026	          487.461828	           49.652549	           -0.263439	            0.005499	           -0.688231	           -0.004389	           -4.620656	           -0.470657
            0.953000	           -2.942868	          403.098339	          -46.093323	           -0.253261	            0.006182	           -0.396615	           -0.035287	            4.833401	           -0.552688	            0.790914	          487.463515	           49.511625	           -0.263407	            0.005500	           -0.688391	           -0.007472	           -4.605287	           -0.467759
            0.953500	           -2.805699	          403.819822	          -46.182284	           -0.252903	            0.006181	           -0.396463	           -0.034256	            4.930420	           -0.563860	            0.881975	          488.200309	           49.561142	           -0.263323	            0.005500	           -0.688573	           -0.008305	           -4.596993	           -0.466678
            0.954000	           -2.943147	          403.999834	          -46.135310	           -0.252894	            0.006181	           -0.396305	           -0.035164	            4.826862	           -0.551210	            0.741426	          488.199802	           49.561202	           -0.263405	            0.005500	           -0.688416	           -0.006943	           -4.571479	           -0.464089
            0.954500	           -2.897939	          404.361357	          -46.363162	           -0.252818	            0.006180	           -0.396248	           -0.034646	            4.834300	           -0.554290	            0.698563	          487.094728	           49.557279	           -0.263547	            0.005498	           -0.688125	           -0.006584	           -4.591069	           -0.467098
            0.955000	           -2.989025	          405.441557	          -46.037301	           -0.253062	            0.006178	           -0.395747	           -0.035731	            4.846728	           -0.550339	            0.746016	          486.911258	           49.415818	           -0.263477	            0.005499	           -0.688303	           -0.007090	           -4.627481	           -0.469635
            0.955500	           -2.759969	          403.820027	          -46.228250	           -0.253092	            0.006182	           -0.396512	           -0.033493	            4.900502	           -0.560996	            0.557452	          487.277524	           49.792637	           -0.263500	            0.005500	           -0.688562	           -0.005212	           -4.555765	           -0.465533
            0.956000	           -2.713866	          403.639347	          -46.137425	           -0.253096	            0.006181	           -0.396332	           -0.032984	            4.905852	           -0.560756	            0.742734	          487.831627	           49.512959	           -0.263498	            0.005498	           -0.688192	           -0.007023	           -4.612800	           -0.468181
            0.956500	           -2.714827	          404.542082	          -46.454555	           -0.252866	            0.006180	           -0.396144	           -0.032770	            4.883099	           -0.560738	            0.696549	          487.647317	           49.512322	           -0.263560	            0.005499	           -0.688405	           -0.006502	           -4.551746	           -0.462153
            0.957000	           -2.943359	          404.540858	          -46.178851	           -0.253049	            0.006180	           -0.396074	           -0.035252	            4.845073	           -0.553071	            0.603534	          487.462671	           49.558633	           -0.263372	            0.005499	           -0.688310	           -0.005668	           -4.578088	           -0.465438
            0.957500	           -2.944563	          404.903355	          -46.635864	           -0.253197	            0.006179	           -0.395904	           -0.035423	            4.871006	           -0.561032	            0.600773	          488.200131	           49.326621	           -0.263448	            0.005500	           -0.688491	           -0.005629	           -4.573968	           -0.462143
            0.958000	           -2.851835	          404.180737	          -46.272336	           -0.252960	            0.006181	           -0.396300	           -0.034190	            4.845683	           -0.554754	            0.695926	          487.831123	           49.606835	           -0.263520	            0.005499	           -0.688344	           -0.006414	           -4.496185	           -0.457211
